<?xml version="1.0" encoding="UTF-8" standalone="no"?>
<svg
   xmlns:dc="http://purl.org/dc/elements/1.1/"
   xmlns:cc="http://creativecommons.org/ns#"
   xmlns:rdf="http://www.w3.org/1999/02/22-rdf-syntax-ns#"
   xmlns:svg="http://www.w3.org/2000/svg"
   xmlns="http://www.w3.org/2000/svg"
   viewBox="0 0 1121.3333 277.33334"
   height="277.33334"
   width="1121.3333"
   xml:space="preserve"
   id="svg2"
   version="1.1"><metadata
     id="metadata8"><rdf:RDF><cc:Work
         rdf:about=""><dc:format>image/svg+xml</dc:format><dc:type
           rdf:resource="http://purl.org/dc/dcmitype/StillImage" /></cc:Work></rdf:RDF></metadata><defs
     id="defs6"><clipPath
       id="clipPath14"
       clipPathUnits="userSpaceOnUse"><path
         id="path12"
         d="M 0,357 H 841 V 565 H 0 Z" /></clipPath></defs><g
     clip-path="url(#clipPath14)"
     transform="matrix(1.3333333,0,0,-1.3333333,0,753.33333)"
     id="g10"><text
       id="text18"
       style="font-variant:normal;font-weight:normal;font-size:9.96259975px;font-family:CMR10;-inkscape-font-specification:CMR10;writing-mode:lr-tb;fill:#000000;fill-opacity:1;fill-rule:nonzero;stroke:none"
       transform="matrix(1,0,0,-1,369.499,506.394)"><tspan
         id="tspan16"
         y="0"
         x="0 6.368094 11.349394 16.884615 19.652225 27.39715 32.378448 39.569454 45.104675 50.085976 54.015224 56.782833 64.53772 68.466972 72.341431 77.322731 81.197182 83.96479 87.894043 91.768494 94.53611 98.963486">Table1:basicstatistics</tspan></text>
<g
       transform="translate(72,505)"
       id="g20"><path
         id="path22"
         style="fill:none;stroke:#000000;stroke-width:0.79699999;stroke-linecap:butt;stroke-linejoin:miter;stroke-miterlimit:10;stroke-dasharray:none;stroke-opacity:1"
         d="M 0,0 H 697.89" /></g><text
       id="text28"
       style="font-variant:normal;font-weight:normal;font-size:9.96259975px;font-family:CMR10;-inkscape-font-specification:CMR10;writing-mode:lr-tb;fill:#000000;fill-opacity:1;fill-rule:nonzero;stroke:none"
       transform="matrix(1,0,0,-1,407.26,493.444)"><tspan
         id="tspan24"
         y="0"
         x="0 7.6104302 12.59173 16.466185 21.447485 25.376734 29.804113 33.67857 37.607819">Datasets:</tspan><tspan
         id="tspan26"
         y="11.955"
         x="0 6.7805457 12.315766 15.083376 19.510756 25.045977 30.581198 34.483547 39.741806 42.509418 47.209774 52.191074 54.958683 62.569115 67.550415 71.424866 76.406166 83.87812 88.859421 92.761772 101.06361 106.04491 108.81252 111.58012 116.0075 120.43488">EbleSurvivalDataNormalized</tspan></text>
<g
       transform="translate(72,475.938)"
       id="g30"><path
         id="path32"
         style="fill:none;stroke:#000000;stroke-width:0.498;stroke-linecap:butt;stroke-linejoin:miter;stroke-miterlimit:10;stroke-dasharray:none;stroke-opacity:1"
         d="M 0,0 H 697.89" /></g><text
       id="text46"
       style="font-variant:normal;font-weight:normal;font-size:9.96259975px;font-family:CMR10;-inkscape-font-specification:CMR10;writing-mode:lr-tb;fill:#000000;fill-opacity:1;fill-rule:nonzero;stroke:none"
       transform="matrix(1,0,0,-1,77.978,464.532)"><tspan
         id="tspan34"
         y="0"
         x="0 4.9812999 329.28186 334.26315 339.24448 344.22577 349.20706 357.50592 361.38037 366.36166 371.34296 374.11057 379.09189 384.07318 389.05447">2:24/80(30.000)</tspan><tspan
         id="tspan36"
         y="11.955"
         x="0 4.9812999 7.7489104 13.834066 19.369287 22.136898 27.118196 32.653419 37.080799 44.310658 49.835915 52.603523 60.905357 65.342697 70.867958 74.807175 77.574783 82.556084 88.081337 93.062637 95.830246 329.28186 334.26315 339.24448 344.22577 349.20706 354.18835 362.48721 366.36166 371.34296 376.32425 379.09189 384.07318 389.05447 394.03577">allhigherdimensional:58/540(10.741)</tspan><tspan
         id="tspan38"
         y="23.91"
         x="0 4.9812999 329.28186 334.26315 339.24448 344.22577 349.20706 354.18835 362.48721 366.36166 371.34296 376.32425 379.09189 384.07318 389.05447 394.03577">3:35/199(17.588)</tspan><tspan
         id="tspan40"
         y="35.865002"
         x="0 4.9812999 329.28186 334.26315 339.24448 344.22577 349.20706 354.18835 362.48721 366.36166 371.34296 374.11057 379.09189 384.07318 389.05447">4:22/226(9.735)</tspan><tspan
         id="tspan42"
         y="47.820999"
         x="0 4.9812999 329.28186 334.26315 339.24448 344.22577 349.20706 357.50592 361.38037 366.36166 369.12927 374.11057 379.09189 384.07318">5:1/115(0.870)</tspan><tspan
         id="tspan44"
         y="59.776001"
         x="0 3.8744552 8.8557549 12.73021 17.71151 20.47912 23.246731 329.28586 334.26715 339.24844 344.22974 349.21106 354.19235 362.49118 366.36566 371.34695 376.32825 379.09586 384.07715 389.05847 394.03976">total::82/620(13.226)</tspan></text>
<g
       transform="translate(72,399.055)"
       id="g48"><path
         id="path50"
         style="fill:none;stroke:#000000;stroke-width:0.79699999;stroke-linecap:butt;stroke-linejoin:miter;stroke-miterlimit:10;stroke-dasharray:none;stroke-opacity:1"
         d="M 0,0 H 697.89" /></g><text
       id="text54"
       style="font-variant:normal;font-weight:normal;font-size:9.96259975px;font-family:CMR10;-inkscape-font-specification:CMR10;writing-mode:lr-tb;fill:#000000;fill-opacity:1;fill-rule:nonzero;stroke:none"
       transform="matrix(1,0,0,-1,418.454,42.112)"><tspan
         id="tspan52"
         y="0"
         x="0">1</tspan></text>
</g></svg>